<svg width="32" height="32" viewBox="0 0 32 32" fill="none" xmlns="http://www.w3.org/2000/svg">
<g clip-path="url(#clip0_1_1648)">
<path d="M0.832596 27.2079L13.3804 14.66L28.0404 0H29.1861L29.42 0.594437C30.0375 2.16344 30.3013 3.76819 30.1828 5.235C30.0478 6.907 29.4127 8.35456 28.3458 9.42138L16.9015 20.8657L15.392 19.3563L4.81166 31.1871C3.75916 32.2396 1.9476 32.3021 0.832596 31.1871C-0.264528 30.0899 -0.264528 28.3049 0.832596 27.2079Z" fill="url(#paint0_linear_1_1648)"/>
<path d="M22.2023 18.2151L31.1655 27.1783C32.2625 28.2753 32.2625 30.0603 31.1655 31.1573C30.1234 32.1995 28.3206 32.2915 27.1865 31.1573L18.2232 22.1941L22.2023 18.2151Z" fill="url(#paint1_linear_1_1648)"/>
<path d="M1.36178 5.32808L6.44622 10.4125L7.77266 9.08608L2.68822 4.00165L4.01459 2.67527L9.09897 7.75965L10.4253 6.43327L5.34091 1.3489L6.66722 0.022583L13.2991 6.65446C14.1104 7.46577 14.5948 8.54302 14.6633 9.6879C14.6807 9.97796 14.7464 10.2633 14.8555 10.5346L10.5474 14.8427C10.276 14.7335 9.99066 14.6678 9.70066 14.6505C8.55578 14.5822 7.47853 14.0976 6.66722 13.2863L0.0353413 6.65452L1.36178 5.32808Z" fill="url(#paint2_linear_1_1648)"/>
</g>
<defs>
<linearGradient id="paint0_linear_1_1648" x1="15.1101" y1="0" x2="15.1101" y2="32" gradientUnits="userSpaceOnUse">
<stop stop-color="white"/>
<stop offset="1" stop-color="white" stop-opacity="0.79"/>
</linearGradient>
<linearGradient id="paint1_linear_1_1648" x1="25.1058" y1="18.2151" x2="25.1058" y2="31.9738" gradientUnits="userSpaceOnUse">
<stop stop-color="white"/>
<stop offset="1" stop-color="white" stop-opacity="0.79"/>
</linearGradient>
<linearGradient id="paint2_linear_1_1648" x1="7.44541" y1="0.022583" x2="7.44541" y2="14.8427" gradientUnits="userSpaceOnUse">
<stop stop-color="white"/>
<stop offset="1" stop-color="white" stop-opacity="0.79"/>
</linearGradient>
<clipPath id="clip0_1_1648">
<rect width="32" height="32" fill="white" transform="matrix(-1 0 0 1 32 0)"/>
</clipPath>
</defs>
</svg>
