<svg width="26" height="26" viewBox="0 0 26 26" fill="none" xmlns="http://www.w3.org/2000/svg">
<path d="M19.2606 11.5652C18.7798 10.7416 17.8873 10.1879 16.8647 10.1879C16.537 10.1879 16.2228 10.2451 15.931 10.3495C15.6076 9.17615 14.5336 8.31409 13.2575 8.31409C11.9814 8.31409 10.9073 9.17615 10.584 10.3495C10.2922 10.2451 9.97797 10.1879 9.65028 10.1879C8.62774 10.1879 7.73516 10.7416 7.25436 11.5652L13.2575 12.0222L19.2606 11.5652Z" fill="#FFC151"/>
<path d="M7.2544 11.5652C7.08743 11.8512 6.96977 12.1695 6.91406 12.5088L12.9999 12.9658L19.6009 12.5088C19.5452 12.1695 19.4276 11.8512 19.2606 11.5652H7.2544Z" fill="#FFD281"/>
<path d="M2.90222 17.6805H1.04063C0.103261 17.6805 0.0390735 16.7649 0.111284 16.6231C0.283534 16.2848 0.635042 16.0531 1.04063 16.0531H3.35925L3.81628 16.6236L3.35925 17.1941L2.90222 17.6805Z" fill="#808B95"/>
<path d="M23.097 17.6805H24.9586C25.896 17.6805 25.9602 16.7649 25.888 16.6231C25.7158 16.2848 25.3643 16.0531 24.9586 16.0531H22.64L22.183 16.6236L22.64 17.1941L23.097 17.6805Z" fill="#808B95"/>
<path d="M25.8871 16.6235C25.9593 16.7653 26.0009 16.9253 26.0009 17.0953C26.0009 17.6709 25.5342 18.1375 24.9586 18.1375H22.64L22.183 17.6805L22.64 17.194H24.9586C25.3642 17.194 25.7149 16.9618 25.8871 16.6235Z" fill="#5E6B75"/>
<path d="M0.11375 16.6235C0.0415898 16.7653 0 16.9253 0 17.0953C0 17.6709 0.466629 18.1375 1.04223 18.1375H3.36086L3.81789 17.6805L3.36086 17.194H1.04223C0.636645 17.194 0.286 16.9618 0.11375 16.6235Z" fill="#5E6B75"/>
<path d="M20.9225 26H5.07578C4.12815 26 3.35999 25.2318 3.35999 24.2842V15.5243L12.9991 15.0673L22.6383 15.5243V24.2842C22.6383 25.2318 21.8701 26 20.9225 26Z" fill="#F03948"/>
<path d="M3.35999 14.5808V15.5243H22.6383V14.5808L12.9991 14.1238L3.35999 14.5808Z" fill="#D82F3C"/>
<path d="M13.3971 1.90491L11.4727 0.801025L11.5712 0.399345C11.6402 0.118169 11.9241 -0.0537761 12.2053 0.0152356L15.5407 0.83388C15.8219 0.902892 15.9938 1.18676 15.9248 1.46793L15.8262 1.86961L13.3971 1.90491Z" fill="#808B95"/>
<path d="M11.4723 0.801025L11.2539 1.69097L13.3256 2.65647L15.6075 2.75951L15.8259 1.86956L11.4723 0.801025Z" fill="#5E6B75"/>
<path d="M12.7563 3.80943L4.05469 0.972386C4.5167 0.460968 5.23769 0.213206 5.95391 0.389011L20.9168 4.06151C21.633 4.23732 22.1574 4.79068 22.3301 5.45784L12.7563 3.80943Z" fill="#F03948"/>
<path d="M4.05201 0.972412C3.84431 1.20235 3.68887 1.48545 3.6098 1.80741L22.3324 6.40265C22.4115 6.08065 22.4048 5.75773 22.3271 5.45782L4.05201 0.972412Z" fill="#D82F3C"/>
<path d="M6.98796 8.00823C6.80957 7.62357 6.41993 7.35681 5.96802 7.35681C5.51612 7.35681 5.12653 7.62357 4.94809 8.00823C4.88146 8.15179 4.94174 9.14721 5.96802 9.14721C6.99431 9.14721 7.05459 8.15184 6.98796 8.00823Z" fill="#FFD281"/>
<path d="M5.96802 8.6606C5.51616 8.6606 5.12764 8.39328 4.94919 8.00867C4.88257 8.15228 4.84433 8.31173 4.84433 8.48042C4.84433 9.10102 5.34742 9.60416 5.96802 9.60416C6.58861 9.60416 7.0917 9.10107 7.0917 8.48042C7.0917 8.31168 7.05346 8.15228 6.98684 8.00867C6.80844 8.39328 6.41992 8.6606 5.96802 8.6606Z" fill="#FFC151"/>
<path d="M22.7872 14.1238H3.21263C2.64043 14.1238 2.21757 13.2142 2.29024 13.0726C2.46193 12.7379 2.81054 12.5088 3.21263 12.5088H22.7871C23.1892 12.5088 23.5378 12.7379 23.7095 13.0726C23.7822 13.2142 23.3593 14.1238 22.7872 14.1238Z" fill="#E7ECF1"/>
<path d="M22.7903 13.6372H3.21573C2.81364 13.6372 2.46584 13.4077 2.2941 13.073C2.22143 13.2146 2.17969 13.3747 2.17969 13.5448C2.17969 14.117 2.64352 14.5808 3.21573 14.5808H22.7902C23.3624 14.5808 23.8263 14.117 23.8263 13.5448C23.8263 13.3746 23.7845 13.2146 23.7119 13.073C23.5402 13.4077 23.1924 13.6372 22.7903 13.6372Z" fill="#C6D0DA"/>
<path d="M10.9328 5.47637C10.7544 5.09171 10.3648 4.82495 9.91286 4.82495C9.46096 4.82495 9.07132 5.09171 8.89292 5.47637C8.82635 5.61993 8.88657 6.61535 9.91286 6.61535C10.9391 6.61535 10.9994 5.61998 10.9328 5.47637Z" fill="#FFD281"/>
<path d="M9.91275 6.12874C9.4609 6.12874 9.07232 5.86142 8.89393 5.47681C8.8273 5.62042 8.78906 5.77987 8.78906 5.94856C8.78906 6.56916 9.29215 7.0723 9.91275 7.0723C10.5333 7.0723 11.0365 6.56921 11.0365 5.94856C11.0365 5.77982 10.9982 5.62042 10.9316 5.47681C10.7532 5.86142 10.3647 6.12874 9.91275 6.12874Z" fill="#FFC151"/>
<path d="M21.6486 8.6209C21.4702 8.23624 21.0805 7.96948 20.6286 7.96948C20.1767 7.96948 19.7871 8.23624 19.6087 8.6209C19.5421 8.76446 19.6023 9.75988 20.6286 9.75988C21.6549 9.75988 21.7151 8.76446 21.6486 8.6209Z" fill="#FFD281"/>
<path d="M20.6276 9.27339C20.1757 9.27339 19.7872 9.00608 19.6088 8.62146C19.5421 8.76507 19.5039 8.92452 19.5039 9.09322C19.5039 9.71382 20.007 10.2169 20.6276 10.2169C21.2482 10.2169 21.7513 9.71382 21.7513 9.09322C21.7513 8.92447 21.7131 8.76507 21.6465 8.62146C21.468 9.00608 21.0794 9.27339 20.6276 9.27339Z" fill="#FFC151"/>
</svg>
