<svg width="36" height="36" viewBox="0 0 36 36" fill="none" xmlns="http://www.w3.org/2000/svg">
<g clip-path="url(#clip0_1_1774)" filter="url(#filter0_d_1_1774)">
<path d="M23.8349 12.6156C23.5881 12.605 23.3587 12.6778 23.1725 12.808C23.1209 12.8441 23.0475 12.8204 23.027 12.7608C22.882 12.3392 22.4819 12.0363 22.0111 12.0363C21.7476 12.0363 21.5064 12.1313 21.3195 12.2888C21.0971 11.8219 21.1477 11.7334 20.5961 11.7334C20.5919 11.7334 20.421 11.6384 20.4168 11.6384C20.1399 11.0881 19.6378 10.7777 19.0953 10.7449C18.6243 10.7163 18.1879 10.9961 18.015 11.4152C17.9915 11.4722 17.9214 11.4931 17.871 11.4575C17.6256 11.2845 17.3265 11.1827 17.0034 11.1827C16.8183 11.1827 16.609 11.184 16.4452 11.2451C16.4032 11.2607 16.3564 11.2454 16.3312 11.2083C16.138 10.9242 15.8445 10.7374 15.4749 10.7374C14.8817 10.7374 14.433 11.2183 14.433 11.8115C14.433 11.8389 14.4341 11.866 14.4361 11.8928C14.4399 11.9425 14.3715 11.9856 14.3224 11.994C13.9371 12.0595 13.6145 12.309 13.4481 12.6489C13.4207 12.7051 13.3491 12.721 13.3003 12.6819C13.0732 12.4998 12.7471 12.3977 12.4289 12.4183C11.8284 12.4572 11.4049 12.9105 11.3635 13.5109C11.3147 14.22 11.811 14.7782 12.5097 14.7782C13.0391 14.7782 23.2679 14.7628 23.7874 14.7628C24.3911 14.7628 24.8784 14.2648 24.861 13.6573C24.8452 13.099 24.3929 12.6397 23.8349 12.6156Z" fill="#FFE07D"/>
<path d="M19.1891 10.6483C18.718 10.6197 18.1529 10.8995 17.98 11.3187C17.9565 11.3757 17.8864 11.3965 17.836 11.361C17.5906 11.188 17.2915 11.0862 16.9684 11.0862C16.7833 11.0862 16.6061 11.1197 16.4424 11.1807C16.4004 11.1964 16.3537 11.1811 16.3285 11.144C16.1353 10.8598 15.8095 10.673 15.4399 10.673C14.8468 10.673 14.3659 11.1539 14.3659 11.7471C14.3659 11.7745 14.3669 11.8016 14.369 11.8285C14.3728 11.8782 14.3366 11.9212 14.2875 11.9296C13.9022 11.9951 13.5796 12.2446 13.4132 12.5845C13.3858 12.6405 13.3143 12.6568 13.2657 12.6177C13.1823 12.5509 12.8971 12.3252 12.4261 12.3539C11.8255 12.3905 11.3306 12.8779 11.2964 13.4787C11.2943 13.5156 11.2799 13.641 11.3314 13.8665C11.332 13.8691 12.1282 14.7782 12.5069 14.7782C12.5919 14.7782 12.9273 14.7778 13.4321 14.7772C12.7526 14.7548 12.2368 14.5397 12.2848 13.8444C12.2848 13.8435 12.208 13.5759 12.3943 13.3184C12.5993 13.035 12.8038 13.0023 12.9149 12.9951C13.1956 12.9769 13.4193 13.0891 13.633 13.2325C13.7279 13.2962 13.8549 13.2667 13.9139 13.1689C14.0777 12.8971 14.3465 12.6957 14.6641 12.6206C14.7541 12.5994 14.8167 12.5174 14.8166 12.4248V12.4231C14.8166 11.8299 15.0328 11.6141 15.3862 11.4744C15.7094 11.3467 16.1284 11.5786 16.3246 11.8345C16.3748 11.8999 16.4612 11.9237 16.5397 11.8985C16.685 11.8518 16.8399 11.8265 17.0006 11.8265C17.2866 11.8265 17.5539 11.9063 17.7816 12.0446C17.8768 12.1024 17.9992 12.0708 18.0538 11.9738C18.263 11.6023 18.6967 11.2361 19.5234 11.258C19.881 11.2674 20.1097 11.3511 20.414 11.6384C20.3124 11.0142 19.7183 10.6804 19.1891 10.6483Z" fill="#FFD064"/>
<path d="M20.544 11.5336C20.5398 11.5336 20.4214 11.6383 20.4171 11.6384C20.4166 11.6353 20.4159 11.6323 20.4154 11.6292L19.8599 12.2312C19.6589 12.449 19.6679 12.7842 19.8801 12.981C20.0824 13.1686 20.3991 13.1643 20.6054 12.9712L21.4 12.2275C21.3723 12.2467 21.3455 12.2671 21.3198 12.2888C21.0974 11.8219 21.0956 11.5336 20.544 11.5336Z" fill="#FFD064"/>
<path d="M21.188 20.0881L18.0194 19.7662L15.2967 20.0881L15.007 20.41V20.6222C15.007 20.7357 15.0998 20.8285 15.2133 20.8285H20.3832C20.6499 20.8285 21.188 20.8377 21.188 20.571V20.0881Z" fill="#E27F86"/>
<path d="M15.2963 20.0881L15.0648 19.7662L14.8134 20.0881V20.571C14.8134 20.8377 15.0296 21.0539 15.2963 21.0539H20.7047C20.9714 21.0539 21.1876 20.8377 21.1876 20.571H15.4558C15.3667 20.571 15.2945 20.4985 15.2949 20.4094L15.2963 20.0881Z" fill="#DF646E"/>
<path d="M19.5122 19.6679H15.7207C13.1224 19.6679 11.9223 18.6994 11.4967 16.7573L11.2422 14.5813H11.6306L17.9336 14.2594L24.9243 14.5813L25.1144 15.7081L24.9917 16.7573C24.9131 17.4291 24.6609 18.0425 24.283 18.5545C23.5933 19.4891 21.046 19.7625 19.5122 19.6679Z" fill="#E27F86"/>
<path d="M25.2408 14.5813L17.9282 14.2594L11.6252 14.5813H11.2368H10.7539L11.0084 16.7573C11.2304 18.6553 12.8385 20.0864 14.7495 20.0864H21.2452C22.4818 20.0864 23.5914 19.487 24.2808 18.5498C23.6536 19.0112 22.8805 19.2815 22.05 19.2815H15.0673C13.4341 19.2815 12.0596 18.0584 11.8698 16.4362L11.8267 16.0674C11.8043 15.8761 11.9538 15.7081 12.1464 15.7081H25.109L25.2408 14.5813Z" fill="#DF646E"/>
<path d="M25.4698 14.5834H10.5321C10.363 14.5834 10.328 14.3944 10.3229 14.3741C10.3229 14.3741 10.2807 14.0862 10.5158 13.8432C10.5195 13.8393 10.5267 13.8429 10.5321 13.8429H25.4698C25.7631 13.8429 26.0009 14.0808 26.0009 14.3741C26.0009 14.3795 26.0009 14.3849 26.0007 14.3903C25.9922 14.6762 25.4787 14.5834 25.4698 14.5834Z" fill="#DF646E"/>
<path d="M25.9839 14.3902H11.0463C10.7529 14.3902 10.5151 14.1524 10.5151 13.859C10.5151 13.8539 10.5157 13.8489 10.5159 13.8437C10.2297 13.8519 10 14.0859 10 14.3741C10 14.6675 10.2378 14.9053 10.5312 14.9053H25.4688C25.757 14.9053 25.991 14.6757 25.9992 14.3895C25.9941 14.3896 25.9891 14.3902 25.9839 14.3902Z" fill="#DC4955"/>
<path d="M20.3741 12.5266C20.3494 12.4917 20.1196 12.2987 20.3183 12.083L24.7025 7.3227C24.7414 7.27019 25.1222 6.8783 25.421 7.02588C25.4948 7.06238 25.5642 7.11141 25.6258 7.17306C25.9366 7.48386 25.9272 7.99061 25.6049 8.28959L20.8805 12.7041C20.8553 12.7277 20.8284 12.7484 20.8001 12.7661C20.5997 12.8922 20.3741 12.5266 20.3741 12.5266Z" fill="#DDEBFD"/>
<path d="M20.7622 12.7374C20.4177 12.3928 20.448 12.2713 20.733 11.9864L25.1172 7.2261C25.2031 7.13345 25.3063 7.06681 25.417 7.02605C25.1183 6.87851 24.7452 6.93559 24.5055 7.19391L20.1213 11.9542C19.9226 12.1699 19.9357 12.5056 20.1506 12.7052C20.3301 12.8719 20.5958 12.8921 20.7963 12.7661C20.7847 12.757 20.7728 12.748 20.7622 12.7374Z" fill="#BED9FD"/>
</g>
<defs>
<filter id="filter0_d_1_1774" x="0" y="0" width="36" height="36" filterUnits="userSpaceOnUse" color-interpolation-filters="sRGB">
<feFlood flood-opacity="0" result="BackgroundImageFix"/>
<feColorMatrix in="SourceAlpha" type="matrix" values="0 0 0 0 0 0 0 0 0 0 0 0 0 0 0 0 0 0 127 0" result="hardAlpha"/>
<feOffset dy="4"/>
<feGaussianBlur stdDeviation="5"/>
<feColorMatrix type="matrix" values="0 0 0 0 0.886275 0 0 0 0 0.498039 0 0 0 0 0.52549 0 0 0 0.3 0"/>
<feBlend mode="normal" in2="BackgroundImageFix" result="effect1_dropShadow_1_1774"/>
<feBlend mode="normal" in="SourceGraphic" in2="effect1_dropShadow_1_1774" result="shape"/>
</filter>
<clipPath id="clip0_1_1774">
<rect width="16" height="16" fill="white" transform="translate(10 6)"/>
</clipPath>
</defs>
</svg>
