<svg width="42" height="38" viewBox="0 0 42 38" fill="none" xmlns="http://www.w3.org/2000/svg">
<g clip-path="url(#clip0_1_1821)" filter="url(#filter0_d_1_1821)">
<path d="M26.6896 16.068H25.5439C25.5718 16.266 25.5863 16.4679 25.5863 16.6729C25.5863 16.851 25.5755 17.0278 25.554 17.2029C25.5843 17.1996 25.6151 17.1977 25.6463 17.1977C25.906 17.1977 26.1385 17.3164 26.2925 17.5023C26.3951 17.3784 26.5325 17.2844 26.6896 17.2355V16.068Z" fill="#FEDF30"/>
<path d="M21.0894 10.9041C21.3548 10.9041 21.6027 11.0473 21.7363 11.2778L21.7667 11.3303L21.7971 11.2778C21.9308 11.0473 22.1787 10.9041 22.444 10.9041C22.7093 10.9041 22.9572 11.0473 23.0909 11.2778L23.1213 11.3303L23.1517 11.2778C23.2854 11.0473 23.5333 10.9041 23.7986 10.9041C24.0639 10.9041 24.3118 11.0473 24.4455 11.2778L24.4759 11.3303L24.5063 11.2778C24.64 11.0473 24.8879 10.9041 25.1532 10.9041C25.4185 10.9041 25.6664 11.0473 25.8 11.2778L25.8304 11.3303L25.8608 11.2778C25.9945 11.0473 26.2424 10.9041 26.5077 10.9041C26.773 10.9041 27.0209 11.0473 27.1546 11.2778L27.185 11.3303L27.2154 11.2778C27.3491 11.0473 27.597 10.9041 27.8623 10.9041C28.1276 10.9041 28.3755 11.0473 28.5092 11.2778L28.5396 11.3303L28.57 11.2778C28.7037 11.0473 28.9516 10.9041 29.2169 10.9041C29.2219 10.9041 29.2268 10.9048 29.2318 10.9049C28.6086 9.61182 27.0177 8.69241 25.153 8.69241C23.2883 8.69241 21.6974 9.61185 21.0742 10.9049C21.0795 10.9048 21.0844 10.9041 21.0894 10.9041Z" fill="#F6A96C"/>
<path d="M21.0892 10.9041C21.3545 10.9041 21.6024 11.0473 21.7361 11.2778L21.7665 11.3303L21.7969 11.2778C21.9306 11.0473 22.1785 10.9041 22.4438 10.9041C22.5117 10.9041 22.5784 10.9137 22.6424 10.9315C23.1683 9.81239 24.4165 8.96807 25.9433 8.74852C25.687 8.71168 25.4229 8.69241 25.153 8.69241C23.2883 8.69241 21.6974 9.61185 21.0742 10.9049C21.0792 10.9048 21.0841 10.9041 21.0892 10.9041Z" fill="#EA9B58"/>
<path d="M24.1428 9.87107C23.9971 9.87107 23.8791 9.75302 23.8791 9.6074V8.74655C23.8791 8.60094 23.9971 8.48288 24.1428 8.48288C24.2884 8.48288 24.4064 8.60094 24.4064 8.74655V9.6074C24.4064 9.75302 24.2884 9.87107 24.1428 9.87107Z" fill="#FFBD86"/>
<path d="M25.1514 9.87107C25.0057 9.87107 24.8877 9.75302 24.8877 9.6074V8.74655C24.8877 8.60094 25.0057 8.48288 25.1514 8.48288C25.297 8.48288 25.415 8.60094 25.415 8.74655V9.6074C25.415 9.75302 25.297 9.87107 25.1514 9.87107Z" fill="#FFBD86"/>
<path d="M26.1657 9.87107C26.0201 9.87107 25.902 9.75302 25.902 9.6074V8.74655C25.902 8.60094 26.0201 8.48288 26.1657 8.48288C26.3114 8.48288 26.4294 8.60094 26.4294 8.74655V9.6074C26.4294 9.75302 26.3114 9.87107 26.1657 9.87107Z" fill="#FFBD86"/>
<path d="M29.2147 12.4C28.9493 12.4 28.7015 12.2569 28.5678 12.0263L28.5374 11.9739L28.507 12.0263C28.3732 12.2568 28.1254 12.4 27.8601 12.4C27.5948 12.4 27.3469 12.2568 27.2132 12.0263L27.1828 11.9738L27.1524 12.0263C27.0187 12.2568 26.7708 12.4 26.5055 12.4C26.2402 12.4 25.9923 12.2568 25.8587 12.0263L25.8282 11.9738L25.7978 12.0263C25.6641 12.2568 25.4163 12.4 25.151 12.4C24.8856 12.4 24.6377 12.2568 24.5041 12.0263L24.4737 11.9738L24.4431 12.0263C24.3094 12.2569 24.0615 12.4 23.7962 12.4C23.5309 12.4 23.283 12.2569 23.1493 12.0263L23.1189 11.9739L23.0885 12.0263C22.9899 12.1963 22.8321 12.3191 22.6442 12.3721L22.5474 12.3993L22.6401 12.4383C23.3541 12.7386 23.992 13.1985 24.4848 13.7682L24.4953 13.7803H28.5899L29.2589 12.3978C29.2441 12.3986 29.2296 12.4 29.2147 12.4Z" fill="#7CA1B1"/>
<path d="M29.2157 10.8689C28.9261 10.8689 28.6739 11.0265 28.5384 11.2601C28.4028 11.0265 28.1506 10.8689 27.861 10.8689C27.5715 10.8689 27.3192 11.0265 27.1837 11.2601C27.0482 11.0265 26.796 10.8689 26.5064 10.8689C26.2168 10.8689 25.9646 11.0265 25.8291 11.2601C25.6936 11.0265 25.4413 10.8689 25.1518 10.8689C24.8622 10.8689 24.61 11.0265 24.4744 11.2601C24.3389 11.0265 24.0867 10.8689 23.7971 10.8689C23.5075 10.8689 23.2553 11.0265 23.1198 11.2601C22.9843 11.0265 22.7321 10.8689 22.4425 10.8689C22.1529 10.8689 21.9007 11.0265 21.7651 11.2601C21.6296 11.0265 21.3774 10.8689 21.0878 10.8689C20.6553 10.8689 20.3047 11.2195 20.3047 11.6521C20.3047 11.7881 20.3394 11.9161 20.4005 12.0275C20.4568 12.0258 20.5133 12.0249 20.57 12.0249C21.2897 12.0249 21.9743 12.1663 22.5935 12.4204C22.8183 12.3763 23.0084 12.2359 23.1197 12.044C23.2552 12.2776 23.5075 12.4352 23.797 12.4352C24.0866 12.4352 24.3388 12.2776 24.4744 12.044C24.6099 12.2776 24.8621 12.4352 25.1517 12.4352C25.4412 12.4352 25.6935 12.2776 25.829 12.044C25.9645 12.2776 26.2167 12.4352 26.5063 12.4352C26.7959 12.4352 27.0481 12.2776 27.1836 12.044C27.3191 12.2776 27.5714 12.4352 27.861 12.4352C28.1505 12.4352 28.4028 12.2776 28.5383 12.044C28.6738 12.2776 28.926 12.4352 29.2156 12.4352C29.6481 12.4352 29.9987 12.0846 29.9987 11.6521C29.9988 11.2195 29.6482 10.8689 29.2157 10.8689Z" fill="#FED2A4"/>
<path d="M25.1922 14.8703L25.2139 14.9196C25.3815 15.3007 25.4926 15.6969 25.5461 16.1031H27.2481C27.5582 16.1031 27.8095 15.8518 27.8095 15.5417V14.8703H25.1922Z" fill="#E8B800"/>
<path d="M29.814 13.7452H24.4652C24.7712 14.0939 25.0237 14.4842 25.2113 14.9055H29.814C29.9174 14.9055 30.0011 14.8217 30.0011 14.7184V13.9324C30.0011 13.829 29.9174 13.7452 29.814 13.7452Z" fill="#FEDF30"/>
<path d="M15.0294 13.5754H13.8054C13.7792 13.2599 13.5153 13.0119 13.1931 13.0119C12.8535 13.0119 12.5781 13.2872 12.5781 13.6269C12.5781 13.7737 12.6298 13.9084 12.7157 14.0142C12.9694 14.0593 13.1712 14.2722 13.1931 14.5362L13.1958 14.5684H14.452V14.5114C14.452 14.4689 14.4866 14.4342 14.5292 14.4342H15.0293V13.5754H15.0294Z" fill="#FFBD86"/>
<path d="M16.1804 14.4342C16.3968 14.0708 16.6642 13.737 16.9735 13.4411H15.1091C15.0471 13.4411 14.9968 13.4914 14.9968 13.5534V14.4342H16.1804Z" fill="#FE7701"/>
<path d="M28.9602 18.372C28.9702 18.3624 28.9806 18.3535 28.9904 18.3436C29.4536 17.8805 29.6425 17.2472 29.5578 16.645C29.5511 16.5975 29.514 16.5604 29.4666 16.5537C28.8643 16.4691 28.2311 16.6579 27.7679 17.1211C27.4189 17.4702 27.2258 17.9159 27.188 18.372H28.9602Z" fill="#46CC8D"/>
<path d="M28.1104 18.372L28.794 17.6885C28.8969 17.5855 28.8969 17.4185 28.794 17.3156C28.691 17.2126 28.524 17.2126 28.4211 17.3156L27.3647 18.372H28.1104Z" fill="#09A755"/>
<path d="M27.7473 18.372C27.7903 18.2686 27.8142 18.1553 27.8142 18.0364C27.8142 17.5538 27.4229 17.1625 26.9403 17.1625C26.4577 17.1625 26.0664 17.5538 26.0664 18.0364C26.0664 18.1553 26.0902 18.2687 26.1333 18.372H27.7473Z" fill="#FD4755"/>
<path d="M15.0567 18.3721C15.0997 18.2687 15.1235 18.1554 15.1235 18.0365C15.1235 17.5539 14.7323 17.1626 14.2496 17.1626C13.767 17.1626 13.3758 17.5539 13.3758 18.0365C13.3758 18.1554 13.3996 18.2688 13.4426 18.3721H15.0567Z" fill="#FD4755"/>
<path d="M20.5667 11.9898C18.6516 11.9898 16.9856 12.978 16.1291 14.4343H19.1289C19.9243 14.4343 20.5715 15.0814 20.5715 15.8769C20.5715 16.673 19.9253 17.3206 19.1311 17.3206C18.9738 17.3206 18.817 17.2945 18.665 17.2429L15.5431 16.1827C15.525 16.3438 15.5156 16.5073 15.5156 16.6729C15.5156 17.2723 15.6377 17.8452 15.8592 18.3721H25.2742C25.4956 17.8452 25.6177 17.2723 25.6177 16.6729C25.6177 14.0865 23.3563 11.9898 20.5667 11.9898Z" fill="#FE9738"/>
<path d="M18.042 14.3991C18.7575 13.2071 20.0181 12.335 21.5115 12.0723C21.2046 12.0184 20.8881 11.9898 20.5644 11.9898C18.6649 11.9898 17.0105 12.9621 16.148 14.3991H18.042Z" fill="#FE860A"/>
<path d="M15.5394 16.2186C15.5238 16.3681 15.5156 16.5195 15.5156 16.6728C15.5156 17.2723 15.6377 17.8452 15.8592 18.372H17.7533C17.5544 17.8989 17.436 17.3885 17.4139 16.8551L15.5394 16.2186Z" fill="#FE860A"/>
<path d="M24.9653 18.3721C25.0083 18.2687 25.0322 18.1554 25.0322 18.0365C25.0322 17.5539 24.6409 17.1626 24.1583 17.1626C23.6757 17.1626 23.2844 17.5539 23.2844 18.0365C23.2844 18.1554 23.3083 18.2688 23.3513 18.3721H24.9653Z" fill="#FD4755"/>
<path d="M26.4553 18.3721C26.4983 18.2687 26.5221 18.1554 26.5221 18.0365C26.5221 17.5539 26.1309 17.1626 25.6483 17.1626C25.1656 17.1626 24.7744 17.5539 24.7744 18.0365C24.7744 18.1554 24.7982 18.2688 24.8412 18.3721H26.4553Z" fill="#E41F2D"/>
<path d="M16.3293 18.3721C16.3724 18.2687 16.3962 18.1554 16.3962 18.0365C16.3962 17.5539 16.0049 17.1626 15.5223 17.1626C15.0397 17.1626 14.6484 17.5539 14.6484 18.0365C14.6484 18.1554 14.6723 18.2688 14.7153 18.3721H16.3293Z" fill="#E41F2D"/>
<path d="M14.4512 14.5332H13.2273C13.2011 14.2177 12.9372 13.9698 12.615 13.9698C12.2753 13.9698 12 14.2451 12 14.5847C12 14.7755 12.0869 14.9459 12.2232 15.0587C12.0869 15.1715 12 15.342 12 15.5328C12 15.8724 12.2753 16.1477 12.615 16.1477C12.9372 16.1477 13.2011 15.8997 13.2273 15.5842H14.4512V14.5332Z" fill="#FED2A4"/>
<path d="M18.6565 17.2762L14.4902 15.8614C14.4447 15.8459 14.4141 15.8032 14.4141 15.7551V14.5114C14.4141 14.4494 14.4643 14.3991 14.5264 14.3991H19.1316C19.9478 14.3991 20.6094 15.0607 20.6094 15.8768C20.6094 16.889 19.6149 17.6016 18.6565 17.2762Z" fill="#FE7701"/>
<path d="M19.8057 16.674L15.6394 15.2592C15.5938 15.2438 15.5632 15.201 15.5632 15.1529V14.3991H14.5264C14.4643 14.3991 14.4141 14.4494 14.4141 14.5114V15.7551C14.4141 15.8032 14.4447 15.846 14.4902 15.8614L18.6565 17.2762C19.2993 17.4945 19.9579 17.2454 20.3222 16.7526C20.1529 16.7572 19.9787 16.7327 19.8057 16.674Z" fill="#F46700"/>
<path d="M28.998 19.7012H13.6046C13.5487 19.7012 13.4957 19.6762 13.4601 19.633L12.6453 18.6429C12.5448 18.5208 12.6317 18.3368 12.7898 18.3368H29.8129C29.9711 18.3368 30.0579 18.5208 29.9574 18.6429L29.1426 19.633C29.107 19.6762 29.054 19.7012 28.998 19.7012Z" fill="#FAC600"/>
<path d="M15.7329 19.633L14.9181 18.6429C14.8176 18.5208 14.9044 18.3368 15.0626 18.3368H12.7851C12.627 18.3368 12.5402 18.5208 12.6407 18.6429L13.4555 19.633C13.491 19.6762 13.544 19.7013 13.6 19.7013H15.8773C15.8215 19.7013 15.7684 19.6762 15.7329 19.633Z" fill="#E8B800"/>
<path d="M20.0918 6.29861H18.5033C18.3577 6.29861 18.2396 6.41667 18.2396 6.56229C18.2396 6.7079 18.3577 6.82596 18.5033 6.82596H20.0918C20.3246 6.82596 20.514 7.01538 20.514 7.24822C20.514 7.48106 20.3246 7.67048 20.0918 7.67048H18.1062C17.5825 7.67048 17.1566 8.09647 17.1566 8.62009C17.1566 9.1437 17.5825 9.56969 18.1062 9.56969H19.0016C19.2384 9.56969 19.4309 9.76231 19.4309 9.99906V10.6164C19.4309 10.7621 19.549 10.8801 19.6946 10.8801C19.8402 10.8801 19.9583 10.7621 19.9583 10.6164V9.99906C19.9583 9.47154 19.5291 9.04235 19.0016 9.04235H18.1062C17.8733 9.04235 17.6839 8.85293 17.6839 8.62009C17.6839 8.38725 17.8733 8.19783 18.1062 8.19783H20.0918C20.6154 8.19783 21.0414 7.77184 21.0414 7.24822C21.0414 6.7246 20.6154 6.29861 20.0918 6.29861Z" fill="#FFE5C2"/>
<path d="M16.4191 12.6932C16.2735 12.6932 16.1555 12.5751 16.1555 12.4295V11.8168C16.1555 11.583 15.9652 11.3928 15.7314 11.3928H14.8428C14.3221 11.3928 13.8984 10.9692 13.8984 10.4484C13.8984 9.92769 14.3221 9.50406 14.8428 9.50406H15.8817C16.0274 9.50406 16.1454 9.62211 16.1454 9.76773C16.1454 9.91335 16.0274 10.0314 15.8817 10.0314H14.8428C14.6128 10.0314 14.4258 10.2185 14.4258 10.4484C14.4258 10.6784 14.6128 10.8654 14.8428 10.8654H15.7314C16.256 10.8654 16.6828 11.2922 16.6828 11.8168V12.4295C16.6828 12.5751 16.5648 12.6932 16.4191 12.6932Z" fill="#FED2A4"/>
<path d="M22.5415 15.152C22.6872 15.152 22.8052 15.034 22.8052 14.8884C22.8052 14.7427 22.6872 14.6247 22.5415 14.6247C22.3959 14.6247 22.2779 14.7427 22.2779 14.8884C22.2779 15.034 22.3959 15.152 22.5415 15.152Z" fill="#FE7701"/>
<path d="M23.881 15.7676C24.0266 15.7676 24.1447 15.6496 24.1447 15.504C24.1447 15.3583 24.0266 15.2403 23.881 15.2403C23.7354 15.2403 23.6173 15.3583 23.6173 15.504C23.6173 15.6496 23.7354 15.7676 23.881 15.7676Z" fill="#FE7701"/>
<path d="M24.6777 16.7094C24.8234 16.7094 24.9414 16.5913 24.9414 16.4457C24.9414 16.3001 24.8234 16.182 24.6777 16.182C24.5321 16.182 24.4141 16.3001 24.4141 16.4457C24.4141 16.5913 24.5321 16.7094 24.6777 16.7094Z" fill="#FE7701"/>
<path d="M23.5529 14.5001C23.6985 14.5001 23.8166 14.382 23.8166 14.2364C23.8166 14.0908 23.6985 13.9727 23.5529 13.9727C23.4073 13.9727 23.2892 14.0908 23.2892 14.2364C23.2892 14.382 23.4073 14.5001 23.5529 14.5001Z" fill="#FE7701"/>
<path d="M22.6512 16.8904C22.7968 16.8904 22.9149 16.7724 22.9149 16.6268C22.9149 16.4811 22.7968 16.3631 22.6512 16.3631C22.5056 16.3631 22.3875 16.4811 22.3875 16.6268C22.3875 16.7724 22.5056 16.8904 22.6512 16.8904Z" fill="#FE7701"/>
</g>
<defs>
<filter id="filter0_d_1_1821" x="0" y="-2" width="42" height="42" filterUnits="userSpaceOnUse" color-interpolation-filters="sRGB">
<feFlood flood-opacity="0" result="BackgroundImageFix"/>
<feColorMatrix in="SourceAlpha" type="matrix" values="0 0 0 0 0 0 0 0 0 0 0 0 0 0 0 0 0 0 127 0" result="hardAlpha"/>
<feOffset dy="6"/>
<feGaussianBlur stdDeviation="6"/>
<feColorMatrix type="matrix" values="0 0 0 0 0.996078 0 0 0 0 0.592157 0 0 0 0 0.219608 0 0 0 0.2 0"/>
<feBlend mode="normal" in2="BackgroundImageFix" result="effect1_dropShadow_1_1821"/>
<feBlend mode="normal" in="SourceGraphic" in2="effect1_dropShadow_1_1821" result="shape"/>
</filter>
<clipPath id="clip0_1_1821">
<rect width="18" height="18" fill="white" transform="translate(12 4)"/>
</clipPath>
</defs>
</svg>
