<svg width="27" height="33" viewBox="0 0 27 33" fill="none" xmlns="http://www.w3.org/2000/svg">
<path d="M23.027 9.52567L24.943 7.60967L23.0576 5.72367L21.008 7.77333C19.1355 6.44639 16.9505 5.62857 14.667 5.4V2.66667H17.3336V0H9.33365V2.66667H12.0003V5.4C9.71677 5.62857 7.53175 6.44639 5.65931 7.77333L3.60965 5.72367L1.72431 7.60967L3.64031 9.52567C1.85184 11.4193 0.657167 13.7952 0.203822 16.3602C-0.249523 18.9251 0.0583177 21.5666 1.08933 23.9586C2.12034 26.3505 3.82936 28.3881 6.00534 29.8197C8.18133 31.2513 10.729 32.0142 13.3336 32.0142C15.9383 32.0142 18.486 31.2513 20.6619 29.8197C22.8379 28.3881 24.547 26.3505 25.578 23.9586C26.609 21.5666 26.9168 18.9251 26.4635 16.3602C26.0101 13.7952 24.8155 11.4193 23.027 9.52567ZM13.3336 29.3333C11.224 29.3333 9.16169 28.7077 7.40756 27.5357C5.65344 26.3636 4.28627 24.6977 3.47893 22.7486C2.6716 20.7995 2.46036 18.6548 2.87194 16.5857C3.28351 14.5166 4.29941 12.616 5.79117 11.1242C7.28293 9.63243 9.18355 8.61653 11.2527 8.20496C13.3218 7.79338 15.4665 8.00462 17.4156 8.81195C19.3647 9.61929 21.0306 10.9865 22.2027 12.7406C23.3747 14.4947 24.0003 16.557 24.0003 18.6667C23.9971 21.4947 22.8723 24.2059 20.8726 26.2056C18.8729 28.2053 16.1616 29.3302 13.3336 29.3333Z" fill="white"/>
<path d="M13.3323 10.6667V18.6667H5.33234C5.33234 20.2489 5.80153 21.7957 6.68058 23.1112C7.55963 24.4268 8.80906 25.4522 10.2709 26.0577C11.7327 26.6632 13.3412 26.8217 14.8931 26.513C16.4449 26.2043 17.8704 25.4424 18.9892 24.3235C20.108 23.2047 20.8699 21.7793 21.1786 20.2274C21.4873 18.6756 21.3289 17.067 20.7234 15.6052C20.1179 14.1434 19.0925 12.894 17.7769 12.0149C16.4613 11.1359 14.9146 10.6667 13.3323 10.6667Z" fill="white"/>
</svg>
