<svg width="66" height="66" viewBox="0 0 66 66" fill="none" xmlns="http://www.w3.org/2000/svg">
<g clip-path="url(#clip0_1_2112)" filter="url(#filter0_d_1_2112)">
<path d="M39.2603 25.5652C38.7795 24.7416 37.8869 24.1879 36.8644 24.1879C36.5367 24.1879 36.2224 24.2451 35.9306 24.3495C35.6073 23.1762 34.5332 22.3141 33.2571 22.3141C31.981 22.3141 30.9069 23.1762 30.5836 24.3495C30.2918 24.2451 29.9776 24.1879 29.6499 24.1879C28.6274 24.1879 27.7348 24.7416 27.254 25.5652L33.2571 26.0223L39.2603 25.5652Z" fill="#FFC151"/>
<path d="M27.2544 25.5653C27.0874 25.8513 26.9698 26.1696 26.9141 26.5089L32.9999 26.9659L39.6009 26.5089C39.5452 26.1696 39.4276 25.8513 39.2606 25.5653H27.2544Z" fill="#FFD281"/>
<path d="M22.9022 31.6805H21.0406C20.1033 31.6805 20.0391 30.7649 20.1113 30.6231C20.2835 30.2848 20.635 30.0531 21.0406 30.0531H23.3593L23.8163 30.6236L23.3593 31.1941L22.9022 31.6805Z" fill="#808B95"/>
<path d="M43.0966 31.6806H44.9582C45.8956 31.6806 45.9598 30.7649 45.8876 30.6232C45.7154 30.2848 45.3639 30.0531 44.9582 30.0531H42.6396L42.1826 30.6236L42.6396 31.1941L43.0966 31.6806Z" fill="#808B95"/>
<path d="M45.8867 30.6236C45.9589 30.7653 46.0005 30.9254 46.0005 31.0953C46.0005 31.6709 45.5338 32.1376 44.9582 32.1376H42.6396L42.1826 31.6805L42.6396 31.194H44.9582C45.3638 31.194 45.7145 30.9619 45.8867 30.6236Z" fill="#5E6B75"/>
<path d="M20.1138 30.6236C20.0416 30.7653 20 30.9254 20 31.0953C20 31.6709 20.4666 32.1376 21.0422 32.1376H23.3609L23.8179 31.6805L23.3609 31.194H21.0422C20.6366 31.194 20.286 30.9619 20.1138 30.6236Z" fill="#5E6B75"/>
<path d="M40.9228 40H25.0761C24.1285 40 23.3604 39.2318 23.3604 38.2842V29.5244L32.9995 29.0673L42.6386 29.5244V38.2842C42.6386 39.2318 41.8705 40 40.9228 40Z" fill="#F03948"/>
<path d="M23.3604 28.5808V29.5243H42.6386V28.5808L32.9995 28.1238L23.3604 28.5808Z" fill="#D82F3C"/>
<path d="M33.401 15.9049L31.4766 14.801L31.5751 14.3993C31.6441 14.1182 31.928 13.9462 32.2092 14.0152L35.5446 14.8339C35.8258 14.9029 35.9977 15.1868 35.9287 15.4679L35.8301 15.8696L33.401 15.9049Z" fill="#808B95"/>
<path d="M31.4723 14.801L31.2539 15.691L33.3256 16.6565L35.6075 16.7595L35.8259 15.8696L31.4723 14.801Z" fill="#5E6B75"/>
<path d="M32.7563 17.8094L24.0547 14.9724C24.5167 14.461 25.2377 14.2132 25.9539 14.389L40.9168 18.0615C41.633 18.2373 42.1574 18.7907 42.3301 19.4578L32.7563 17.8094Z" fill="#F03948"/>
<path d="M24.0522 14.9725C23.8445 15.2024 23.6891 15.4855 23.61 15.8075L42.3326 20.4027C42.4116 20.0807 42.4049 19.7578 42.3273 19.4579L24.0522 14.9725Z" fill="#D82F3C"/>
<path d="M26.9881 22.0082C26.8098 21.6235 26.4201 21.3568 25.9682 21.3568C25.5163 21.3568 25.1267 21.6235 24.9483 22.0082C24.8816 22.1518 24.9419 23.1472 25.9682 23.1472C26.9945 23.1472 27.0548 22.1518 26.9881 22.0082Z" fill="#FFD281"/>
<path d="M25.9679 22.6606C25.516 22.6606 25.1275 22.3933 24.9491 22.0087C24.8824 22.1523 24.8442 22.3118 24.8442 22.4805C24.8442 23.1011 25.3473 23.6042 25.9679 23.6042C26.5885 23.6042 27.0916 23.1011 27.0916 22.4805C27.0916 22.3117 27.0533 22.1523 26.9867 22.0087C26.8083 22.3933 26.4198 22.6606 25.9679 22.6606Z" fill="#FFC151"/>
<path d="M42.787 28.1238H23.2124C22.6402 28.1238 22.2174 27.2142 22.2901 27.0726C22.4617 26.7379 22.8104 26.5088 23.2124 26.5088H42.7869C43.189 26.5088 43.5376 26.7379 43.7093 27.0726C43.782 27.2142 43.3591 28.1238 42.787 28.1238Z" fill="#E7ECF1"/>
<path d="M42.7903 27.6372H23.2157C22.8136 27.6372 22.4658 27.4077 22.2941 27.073C22.2214 27.2146 22.1797 27.3747 22.1797 27.5448C22.1797 28.117 22.6435 28.5808 23.2157 28.5808H42.7902C43.3624 28.5808 43.8263 28.117 43.8263 27.5448C43.8263 27.3746 43.7845 27.2146 43.7119 27.073C43.5402 27.4077 43.1924 27.6372 42.7903 27.6372Z" fill="#C6D0DA"/>
<path d="M30.9337 19.4764C30.7553 19.0917 30.3657 18.825 29.9138 18.825C29.4619 18.825 29.0722 19.0917 28.8938 19.4764C28.8273 19.6199 28.8875 20.6153 29.9138 20.6153C30.94 20.6153 31.0003 19.62 30.9337 19.4764Z" fill="#FFD281"/>
<path d="M29.9128 20.1289C29.4609 20.1289 29.0723 19.8615 28.8939 19.4769C28.8273 19.6205 28.7891 19.78 28.7891 19.9487C28.7891 20.5693 29.2922 21.0724 29.9128 21.0724C30.5333 21.0724 31.0365 20.5693 31.0365 19.9487C31.0365 19.7799 30.9983 19.6205 30.9316 19.4769C30.7532 19.8615 30.3647 20.1289 29.9128 20.1289Z" fill="#FFC151"/>
<path d="M41.6447 22.6209C41.4663 22.2362 41.0766 21.9695 40.6247 21.9695C40.1728 21.9695 39.7832 22.2362 39.6048 22.6209C39.5382 22.7645 39.5984 23.7599 40.6247 23.7599C41.651 23.7599 41.7112 22.7645 41.6447 22.6209Z" fill="#FFD281"/>
<path d="M40.6267 23.2734C40.1748 23.2734 39.7863 23.006 39.6079 22.6214C39.5412 22.765 39.503 22.9245 39.503 23.0932C39.503 23.7138 40.0061 24.2169 40.6267 24.2169C41.2473 24.2169 41.7504 23.7138 41.7504 23.0932C41.7504 22.9244 41.7122 22.765 41.6456 22.6214C41.4671 23.006 41.0785 23.2734 40.6267 23.2734Z" fill="#FFC151"/>
</g>
<defs>
<filter id="filter0_d_1_2112" x="0" y="0" width="66" height="66" filterUnits="userSpaceOnUse" color-interpolation-filters="sRGB">
<feFlood flood-opacity="0" result="BackgroundImageFix"/>
<feColorMatrix in="SourceAlpha" type="matrix" values="0 0 0 0 0 0 0 0 0 0 0 0 0 0 0 0 0 0 127 0" result="hardAlpha"/>
<feOffset dy="6"/>
<feGaussianBlur stdDeviation="10"/>
<feColorMatrix type="matrix" values="0 0 0 0 0.941176 0 0 0 0 0.223529 0 0 0 0 0.282353 0 0 0 0.3 0"/>
<feBlend mode="normal" in2="BackgroundImageFix" result="effect1_dropShadow_1_2112"/>
<feBlend mode="normal" in="SourceGraphic" in2="effect1_dropShadow_1_2112" result="shape"/>
</filter>
<clipPath id="clip0_1_2112">
<rect width="26" height="26" fill="white" transform="translate(20 14)"/>
</clipPath>
</defs>
</svg>
