<svg width="22" height="22" viewBox="0 0 22 22" fill="none" xmlns="http://www.w3.org/2000/svg">
<path fill-rule="evenodd" clip-rule="evenodd" d="M5.58589 9.80835H0.000902176V11.7485C0.000902176 12.2282 0.39239 12.62 0.871706 12.62H2.88063L4.07894 13.2253L5.58594 12.62V9.80835H5.58589Z" fill="#FFEF60"/>
<path fill-rule="evenodd" clip-rule="evenodd" d="M4.71507 6.9928H0.871689C0.392373 6.9928 0.00088501 7.38459 0.00088501 7.86429V9.30593H5.58588V7.86429C5.58588 7.38459 5.19439 6.9928 4.71507 6.9928Z" fill="#FFEF60"/>
<path fill-rule="evenodd" clip-rule="evenodd" d="M5.58588 8.87146H0.00088501V10.2415H5.58588V8.87146Z" fill="#FF814E"/>
<path fill-rule="evenodd" clip-rule="evenodd" d="M1.16821 8.87148H0.453001H0.00251579V7.86433C0.00251579 7.53657 0.185735 7.25027 0.453001 7.10207C0.578469 7.03302 0.721512 6.9928 0.873363 6.9928H2.03906C1.55975 6.9928 1.16826 7.38459 1.16826 7.86429V8.87148H1.16821Z" fill="#FFCD1B"/>
<path fill-rule="evenodd" clip-rule="evenodd" d="M1.16406 10.2415H0.448848H-0.00163651V9.80826V9.30596V8.87146H0.448848H1.16406V9.30596V9.80826V10.2415Z" fill="#FF5A17"/>
<path fill-rule="evenodd" clip-rule="evenodd" d="M1.16827 10.2415V11.7484C1.16827 12.2281 1.55975 12.6199 2.03906 12.6199H0.873375C0.721568 12.6199 0.578526 12.581 0.453016 12.5119C0.185753 12.3625 0.00253677 12.0762 0.00253677 11.7484V10.2415H0.453016H1.16827Z" fill="#FFCD1B"/>
<path fill-rule="evenodd" clip-rule="evenodd" d="M5.58589 12.62H2.88058V13.8645C2.88058 14.1634 3.12525 14.407 3.42263 14.407H12.2308C12.2308 13.6246 12.2308 13.2265 11.6323 13.2265L10.4402 13.2253C9.68988 13.224 9.19801 13.0319 8.92323 12.62H5.58589V12.62Z" fill="#635448"/>
<path fill-rule="evenodd" clip-rule="evenodd" d="M11.1666 14.407H3.42088C2.96666 15.1981 2.60151 16.1488 2.91647 17.9671C3.44348 16.1739 8.79636 16.8897 9.34593 18.9592H15.2522C15.4755 18.4531 15.6863 17.9533 15.8708 17.4485H14.2057C10.8379 16.1776 11.9207 16.744 11.1666 14.407Z" fill="#FF8C5E"/>
<path fill-rule="evenodd" clip-rule="evenodd" d="M11.6439 9.5458C11.5285 10.1536 11.3717 10.7526 11.196 11.2624L9.49336 11.9296L7.59482 11.2624C7.66134 7.66965 9.00394 5.94673 10.1458 5.38917C10.5574 5.0758 10.979 4.95776 10.979 4.95776C10.979 4.95776 11.5336 5.84503 11.5624 5.84503C11.7757 6.35236 11.856 7.01417 11.8422 7.72869L11.6439 9.5458Z" fill="#FFFAFA"/>
<path fill-rule="evenodd" clip-rule="evenodd" d="M7.59534 11.2625H11.1965C12.026 11.3529 13.0461 11.9845 13.0461 13.941V15.9917L12.2288 16.4785L11.1665 15.9917V14.4069C11.1665 13.6246 11.1665 13.2265 10.568 13.2265L9.37592 13.2252C8.62556 13.224 8.13369 13.0318 7.85891 12.6199C7.64681 12.3023 7.56526 11.8539 7.59534 11.2625Z" fill="#FF8086"/>
<path fill-rule="evenodd" clip-rule="evenodd" d="M7.59532 11.2624C7.66183 7.66964 9.00443 5.94672 10.1463 5.38916C10.3157 5.50844 10.5039 5.60641 10.7109 5.67924C9.69958 6.444 8.68574 8.15312 8.62803 11.2624H7.59532Z" fill="#FFC8C8"/>
<path fill-rule="evenodd" clip-rule="evenodd" d="M7.59566 11.2625H8.62832C8.5982 11.8539 8.67976 12.3023 8.89181 12.62C9.06497 12.8799 9.32597 13.0997 9.68359 13.2253H9.37615C8.62579 13.224 8.13393 13.0319 7.85914 12.62C7.64713 12.3023 7.56558 11.8539 7.59566 11.2625Z" fill="#F76672"/>
<path fill-rule="evenodd" clip-rule="evenodd" d="M9.34375 18.9592C9.34375 17.1019 7.8719 15.6226 6.05625 15.6226C4.57937 15.6226 3.32963 16.6021 2.91429 17.9671C2.82896 18.2471 2.77877 18.5448 2.77 18.8537C2.76622 18.9743 2.84907 18.9592 2.96199 18.9592C5.08881 18.9592 7.21693 18.9579 9.34375 18.9592Z" fill="#FF8C5D"/>
<path fill-rule="evenodd" clip-rule="evenodd" d="M8.52005 18.9591H3.51599C3.58749 20.3078 4.6804 21.3803 6.01802 21.3803C7.35564 21.3803 8.44855 20.3078 8.52005 18.9591Z" fill="#292019"/>
<path fill-rule="evenodd" clip-rule="evenodd" d="M21.2275 18.4254L16.9223 19.4162C17.1959 20.6055 18.3817 21.3489 19.5699 21.0751C20.7594 20.8014 21.501 19.6147 21.2275 18.4254Z" fill="#292019"/>
<path fill-rule="evenodd" clip-rule="evenodd" d="M21.5495 17.2187C20.9409 16.3334 19.8844 15.8197 18.7802 15.9303C16.8328 16.3422 16.1991 17.5063 16.0724 18.958C16.0749 19.1551 16.0963 19.3535 16.1389 19.552C16.1515 19.6072 16.1879 19.5846 16.2481 19.5708L16.922 19.4163L21.2271 18.4255L21.5496 18.3514L22 18.2472C21.9134 17.8679 21.7578 17.5214 21.5495 17.2187Z" fill="#FFFAFA"/>
<path fill-rule="evenodd" clip-rule="evenodd" d="M18.7812 15.9252L17.0421 9.9075L16.2592 9.55713L15.3833 9.9075C16.5339 13.0972 16.2127 15.3237 15.436 17.4485C15.2503 17.9533 15.0395 18.4531 14.8174 18.9592H16.0684L18.7812 15.9252Z" fill="#FF814E"/>
<path fill-rule="evenodd" clip-rule="evenodd" d="M13.399 3.16021L11.3587 2.72571C11.1517 2.74453 10.5594 3.24185 10.5594 3.55329L10.9936 5.76093C11.1742 5.81494 11.3662 5.84506 11.5645 5.84506C12.6511 5.84506 13.532 4.96227 13.532 3.87473C13.532 3.62234 13.4856 3.3812 13.399 3.16021Z" fill="#FFECE4"/>
<path fill-rule="evenodd" clip-rule="evenodd" d="M14.0547 3.16019C14.0547 1.75623 12.943 0.619751 11.5702 0.619751C10.1975 0.619751 9.08577 1.75623 9.08577 3.16019C9.08577 4.08694 9.46222 4.91074 10.1448 5.3892C10.3882 5.56124 10.6718 5.68809 10.9905 5.76092V3.55323C10.9905 3.24179 11.1486 3.17901 11.3557 3.16015H13.3959H14.0547V3.16019Z" fill="#FF8C5D"/>
<path fill-rule="evenodd" clip-rule="evenodd" d="M12.8718 0.995212C12.4941 0.756606 12.0486 0.619751 11.5718 0.619751C10.1991 0.619751 9.08738 1.75623 9.08738 3.16019C9.08738 4.08694 9.46383 4.91074 10.1464 5.3892C10.3196 5.51101 10.5116 5.61023 10.7224 5.68306C10.218 5.17195 9.94444 4.4386 9.94444 3.62984C9.94444 2.1631 11.1076 0.973856 12.5418 0.973856C12.6535 0.973856 12.7639 0.98013 12.8718 0.995212Z" fill="#FF5A17"/>
<path fill-rule="evenodd" clip-rule="evenodd" d="M13.0477 15.9917H11.168V17.1759C11.168 17.4296 11.3061 17.4484 11.5093 17.4484H14.2071C14.2611 16.2604 13.5421 15.9917 13.0477 15.9917Z" fill="#635448"/>
<path fill-rule="evenodd" clip-rule="evenodd" d="M15.4392 17.4484C16.2159 15.3237 16.5371 13.0972 15.3865 9.90747H16.0314C16.0339 9.90747 16.0365 9.90747 16.039 9.90747H16.2711C17.4217 13.0972 17.1017 15.3236 16.3238 17.4484C16.1393 17.9533 15.9285 18.4531 15.7052 18.9591H15.2534H14.8205C15.0426 18.4531 15.2534 17.9532 15.4392 17.4484Z" fill="#FF5A17"/>
<path fill-rule="evenodd" clip-rule="evenodd" d="M16.0733 18.958L18.7811 15.9303C19.0609 15.9027 19.3382 15.914 19.6055 15.9629L17.0031 18.8726C17.0056 19.0421 17.0219 19.2141 17.0545 19.3862L16.9228 19.4163L16.2489 19.5708C16.1887 19.5846 16.1523 19.6072 16.1397 19.552C16.0971 19.3536 16.0758 19.1551 16.0733 18.958Z" fill="#FFC8C8"/>
<path fill-rule="evenodd" clip-rule="evenodd" d="M3.42134 14.407H11.1671V15.0889H4.80283C4.28463 15.0889 4.03868 15.3124 3.83664 15.7657C3.66223 16.1588 3.65844 16.2869 3.57942 16.7616C3.28204 17.1069 3.05366 17.5163 2.91689 17.9671C2.60197 16.1487 2.96712 15.1981 3.42134 14.407Z" fill="#FF5A17"/>
<path fill-rule="evenodd" clip-rule="evenodd" d="M3.57972 16.7615C4.18202 16.062 5.06915 15.6226 6.05915 15.6226C6.3076 15.6226 6.54852 15.6502 6.78064 15.7017C5.29873 16.0369 4.26228 17.3455 4.21712 18.8537C4.21463 18.9366 4.25227 18.9554 4.31247 18.9592H3.5157H2.96484C2.85192 18.9592 2.76908 18.9743 2.77286 18.8537C2.78162 18.5448 2.83181 18.2471 2.91715 17.9671C2.91964 17.9583 2.92217 17.9508 2.92467 17.9433C2.92467 17.9433 2.92467 17.9433 2.92467 17.942C3.06272 17.5012 3.28732 17.1006 3.57972 16.7615Z" fill="#FF5A17"/>
<path fill-rule="evenodd" clip-rule="evenodd" d="M17.0547 19.3861L21.2281 18.4254C21.2745 18.6226 21.2909 18.821 21.2833 19.0144L17.9708 19.7767L17.8403 19.8068C17.9632 20.3468 18.2757 20.7951 18.691 21.0977C17.844 20.9483 17.1275 20.3078 16.923 19.4162L17.0547 19.3861Z" fill="#635448"/>
<path fill-rule="evenodd" clip-rule="evenodd" d="M4.31225 18.9591H8.51953C8.50574 19.2228 8.45177 19.4765 8.36519 19.7139H5.43403H4.63726C4.66863 20.3041 4.89447 20.8403 5.25086 21.2584C4.28342 20.9407 3.57198 20.0378 3.51552 18.9591H4.31225V18.9591Z" fill="#635448"/>
<path fill-rule="evenodd" clip-rule="evenodd" d="M2.87946 13.8645V12.62H4.57968V13.8645C4.57968 14.1633 4.82435 14.4069 5.12173 14.4069H3.42151C3.12412 14.407 2.87946 14.1633 2.87946 13.8645Z" fill="#292019"/>
<path fill-rule="evenodd" clip-rule="evenodd" d="M13.5195 3.66375H11.8431C11.6361 3.68257 11.478 3.74664 11.478 4.05807V5.84252C11.3099 5.835 11.1467 5.80737 10.9912 5.76088V3.55323C10.9912 3.2418 11.1492 3.17902 11.3563 3.16016H13.3966C13.458 3.31841 13.5007 3.48792 13.5195 3.66375Z" fill="#FFDDCE"/>
<path fill-rule="evenodd" clip-rule="evenodd" d="M17.4085 8.01251L15.0608 8.78857C14.9453 8.89153 15.0758 9.94138 15.1537 9.90748H17.0459H17.8828V8.17953C17.8828 7.83922 17.7059 7.91455 17.4085 8.01251Z" fill="#FFE07D"/>
<path fill-rule="evenodd" clip-rule="evenodd" d="M13.968 9.90751H14.165H15.155C15.7924 9.90751 15.8113 8.85013 15.0621 8.7886L13.968 8.70068L13.6744 9.32231L13.968 9.90751Z" fill="#FFECE4"/>
<path fill-rule="evenodd" clip-rule="evenodd" d="M11.8437 7.72873L11.4509 7.39091C10.4672 6.54327 9.2237 7.97361 10.5387 8.82753L11.6454 9.54584L12.2025 9.90751H13.9655V8.70069L12.8701 8.61153L11.8437 7.72873Z" fill="#FF8086"/>
<path fill-rule="evenodd" clip-rule="evenodd" d="M13.9677 9.9075V9.32231H14.2023H14.329H14.5273H15.5173C15.5549 9.32231 15.5901 9.31982 15.6239 9.31226C15.6603 9.60358 15.4959 9.9075 15.1546 9.9075H14.1646H13.9677Z" fill="#FFDDCE"/>
<path fill-rule="evenodd" clip-rule="evenodd" d="M10.5387 8.82748C9.74317 8.3101 9.88372 7.58302 10.3367 7.27661C10.3003 7.59054 10.4496 7.95096 10.9013 8.24358L11.7633 8.80239L12.0068 8.96189L12.5639 9.32231H13.9655V9.9075H12.2025L11.6454 9.54583L10.5387 8.82748Z" fill="#F76672"/>
<path fill-rule="evenodd" clip-rule="evenodd" d="M15.0602 8.78861L16.005 8.47717C16.3212 8.81624 16.4743 9.47676 16.2711 9.90752H15.3865H15.1531C15.4944 9.90752 15.6587 9.6036 15.6224 9.31227C15.5897 9.05987 15.4078 8.81749 15.0602 8.78861Z" fill="#FFC269"/>
</svg>
