<svg width="38" height="38" viewBox="0 0 38 38" fill="none" xmlns="http://www.w3.org/2000/svg">
<g filter="url(#filter0_d_1_1790)">
<path d="M23.6856 11.2813L22.25 8H15.75L14.3144 11.2813C14.1071 11.7553 14 12.2671 14 12.7844V19C14 19.5523 14.4477 20 15 20H23C23.5523 20 24 19.5523 24 19V12.7844C24 12.2671 23.8929 11.7553 23.6856 11.2813Z" fill="#FAA037"/>
<path d="M15.5 6H21.75C22.0262 6 22.25 6.22384 22.25 6.5V8H15.5C15.2238 8 15 7.77616 15 7.5V6.5C15 6.22384 15.2238 6 15.5 6Z" fill="#FAA037"/>
<path d="M21.5 6H21.75C22.0262 6 22.25 6.22384 22.25 6.5V8H21.5C21.2238 8 21 7.77616 21 7.5V6.5C21 6.22384 21.2238 6 21.5 6Z" fill="#F57828"/>
<path d="M23.6856 11.2813L22.25 8H15.75L15.5312 8.5H21.5312L20.3144 11.2813C20.1071 11.7553 20 12.2671 20 12.7844V19C20 19.5523 20.4477 20 21 20H23C23.5523 20 24 19.5523 24 19V12.7844C24 12.2671 23.8929 11.7553 23.6856 11.2813V11.2813Z" fill="#F57828"/>
<path d="M14.5 16.6667C14.3619 16.6667 14.25 16.5547 14.25 16.4167V16.25C14.25 15.8365 13.9136 15.5 13.5 15.5C13.3619 15.5 13.25 15.3881 13.25 15.25C13.25 15.1119 13.3619 15 13.5 15C14.1892 15 14.75 15.5608 14.75 16.25V16.4167C14.75 16.5547 14.6381 16.6667 14.5 16.6667Z" fill="#353744"/>
<path d="M15.5 16C15.1158 16 14.7654 16.1447 14.5 16.3822C14.2346 16.1447 13.8842 16 13.5 16C12.6716 16 12 16.6716 12 17.5C12 18.9167 13 20 13.75 20C14.5 20 14.5 20 14.5 20C14.5 20 14.5 20 15.25 20C16 20 17 18.9167 17 17.5C17 16.6716 16.3284 16 15.5 16Z" fill="#D7322D"/>
<path d="M13.25 17.5C13.5261 17.5 13.75 17.2761 13.75 17C13.75 16.7239 13.5261 16.5 13.25 16.5C12.9739 16.5 12.75 16.7239 12.75 17C12.75 17.2761 12.9739 17.5 13.25 17.5Z" fill="#F04B37"/>
<path d="M15.75 14C15.0597 14 14.5 14.5597 14.5 15.25V15.5H14.75C15.4403 15.5 16 14.9403 16 14.25C16 14.1119 15.8881 14 15.75 14Z" fill="#69A041"/>
<path d="M22.5 13H23V11.75C23 11.6119 22.8881 11.5 22.75 11.5H21.25C21.1119 11.5 21 11.6119 21 11.75C21 11.8881 21.1119 12 21.25 12H22.5V13Z" fill="#D7E6E6"/>
<path d="M25.5 13H21.5C21.2238 13 21 13.2238 21 13.5V19.5C21 19.7762 21.2238 20 21.5 20H25.5C25.7762 20 26 19.7762 26 19.5V13.5C26 13.2238 25.7762 13 25.5 13Z" fill="#91B945"/>
<path d="M25.5 13H23.5C23.2238 13 23 13.2238 23 13.5V19.5C23 19.7762 23.2238 20 23.5 20H25.5C25.7762 20 26 19.7762 26 19.5V13.5C26 13.2238 25.7762 13 25.5 13Z" fill="#69A041"/>
<path d="M24.5 17.75C25.1904 17.75 25.75 17.1904 25.75 16.5C25.75 15.8096 25.1904 15.25 24.5 15.25C23.8096 15.25 23.25 15.8096 23.25 16.5C23.25 17.1904 23.8096 17.75 24.5 17.75Z" fill="#FABE19"/>
</g>
<defs>
<filter id="filter0_d_1_1790" x="-1" y="-1" width="40" height="40" filterUnits="userSpaceOnUse" color-interpolation-filters="sRGB">
<feFlood flood-opacity="0" result="BackgroundImageFix"/>
<feColorMatrix in="SourceAlpha" type="matrix" values="0 0 0 0 0 0 0 0 0 0 0 0 0 0 0 0 0 0 127 0" result="hardAlpha"/>
<feOffset dy="6"/>
<feGaussianBlur stdDeviation="6"/>
<feColorMatrix type="matrix" values="0 0 0 0 0.980392 0 0 0 0 0.627451 0 0 0 0 0.215686 0 0 0 0.2 0"/>
<feBlend mode="normal" in2="BackgroundImageFix" result="effect1_dropShadow_1_1790"/>
<feBlend mode="normal" in="SourceGraphic" in2="effect1_dropShadow_1_1790" result="shape"/>
</filter>
</defs>
</svg>
